<svg width="159" height="159" viewBox="0 0 159 159" fill="none" xmlns="http://www.w3.org/2000/svg">
<g filter="url(#filter0_d_104_15)">
<rect x="13" y="13" width="129" height="129" rx="42.4206" fill="white"/>
</g>
<path d="M103.693 71.2446C107.775 58.6888 110.496 52.4109 111.857 52.4109C112.017 52.4109 112.197 52.4314 112.397 52.4723C113.038 52.5132 113.758 52.2473 114.558 51.6748C115.599 50.775 116.8 50.0797 118.16 49.5889C119.561 49.0982 120.922 48.9141 122.242 49.0368C125.324 49.3231 127.265 50.9795 128.065 54.006V54.19C127.865 54.7626 127.665 55.2329 127.465 55.601H127.705C126.704 56.8688 125.744 58.5252 124.823 60.5701C123.903 62.5742 123.203 64.1487 122.722 65.2939C122.242 66.3982 121.562 67.8092 120.681 69.5269C119.801 71.2446 118.78 73.3509 117.62 75.8457C116.499 78.3405 115.319 80.8148 114.078 83.2687C111.117 89.1581 108.175 93.7796 105.254 97.1333C103.773 98.9737 101.772 99.8735 99.2509 99.8326C98.1704 99.7917 97.1299 99.5054 96.1294 98.9737C95.1289 98.442 94.3485 97.6241 93.7883 96.5198L92.5276 92.6549C92.0074 93.1048 91.4071 93.6774 90.7268 94.3726C90.0464 95.0679 89.3261 95.7836 88.5657 96.5198C86.8049 98.2375 85.4442 99.1373 84.4837 99.2191C83.5232 99.3009 82.7028 99.3009 82.0225 99.2191C81.3422 99.1782 80.7019 99.035 80.1016 98.7897C78.7409 98.258 77.8605 97.2355 77.4603 95.7223C76.78 88.7287 77.1201 79.7924 78.4808 68.9134C78.841 66.255 79.1611 63.6375 79.4413 61.0609C80.1216 57.421 81.4022 54.8035 83.2831 53.2084C84.8839 51.8179 86.4447 51.4089 87.9654 51.9815C88.6457 52.2269 89.166 52.6359 89.5262 53.2084C89.8864 53.781 90.0064 54.4763 89.8864 55.2943C89.9664 57.7891 89.9464 59.6499 89.8263 60.8769C89.6662 62.9627 89.6062 64.4964 89.6462 65.4779C89.6863 66.4595 89.6662 67.2775 89.5862 67.9318C89.5462 68.5453 89.5062 69.1383 89.4662 69.7109C89.4662 70.2426 89.4862 70.6925 89.5262 71.0606C89.6062 71.3878 89.7663 71.4491 90.0064 71.2446C90.9269 69.2406 91.7072 67.7887 92.3476 66.8889C92.9879 65.9892 93.6682 65.0485 94.3886 64.067C95.5091 63.0445 96.4896 62.656 97.33 62.9014C97.7702 62.9831 98.2304 63.1467 98.7107 63.3921C99.1909 63.5966 99.8312 63.7807 100.632 63.9443C101.152 64.3941 101.492 64.8849 101.652 65.4166C101.772 65.5393 101.892 65.662 102.012 65.7847C102.132 65.8665 102.212 65.9892 102.252 66.1528C102.332 66.2755 102.432 66.5822 102.553 67.073C102.713 67.5638 102.873 68.0954 103.033 68.668C103.193 69.1997 103.333 69.7314 103.453 70.2631C103.573 70.7538 103.653 71.081 103.693 71.2446ZM105.134 96.9492C105.134 97.031 105.134 97.0515 105.134 97.0106C105.174 96.9288 105.194 96.847 105.194 96.7652L105.134 96.9492Z" fill="#2C2B2E"/>
<path d="M106.22 73.8276C110.302 61.2718 113.024 54.9939 114.384 54.9939C114.545 54.9939 114.725 55.0144 114.925 55.0553C115.565 55.0962 116.285 54.8303 117.086 54.2578C118.126 53.358 119.327 52.6627 120.688 52.1719C122.088 51.6812 123.449 51.4971 124.77 51.6198C127.851 51.9061 129.792 53.5625 130.592 56.589V56.773C130.392 57.3456 130.192 57.8159 129.992 58.184H130.232C129.232 59.4519 128.271 61.1082 127.351 63.1532C126.43 65.1572 125.73 66.7318 125.25 67.8769C124.77 68.9812 124.089 70.3922 123.209 72.1099C122.328 73.8276 121.308 75.9339 120.147 78.4287C119.027 80.9235 117.846 83.3978 116.606 85.8517C113.644 91.7411 110.703 96.3626 107.781 99.7163C106.3 101.557 104.3 102.456 101.778 102.416C100.698 102.375 99.6572 102.088 98.6568 101.557C97.6563 101.025 96.8759 100.207 96.3156 99.1028L95.055 95.2379C94.5347 95.6878 93.9344 96.2604 93.2541 96.9556C92.5738 97.6509 91.8534 98.3666 91.0931 99.1028C89.3322 100.821 87.9715 101.72 87.0111 101.802C86.0506 101.884 85.2302 101.884 84.5499 101.802C83.8695 101.761 83.2292 101.618 82.6289 101.373C81.2683 100.841 80.3878 99.8185 79.9876 98.3053C79.3073 91.3117 79.6475 82.3754 81.0081 71.4964C81.3683 68.838 81.6885 66.2205 81.9686 63.6439C82.6489 60.004 83.9296 57.3865 85.8105 55.7914C87.4113 54.4009 88.972 53.9919 90.4928 54.5645C91.1731 54.8099 91.6933 55.2189 92.0535 55.7914C92.4137 56.364 92.5338 57.0593 92.4137 57.8773C92.4937 60.3721 92.4737 62.2329 92.3537 63.4599C92.1936 65.5457 92.1336 67.0794 92.1736 68.061C92.2136 69.0425 92.1936 69.8605 92.1136 70.5149C92.0735 71.1283 92.0335 71.7214 91.9935 72.2939C91.9935 72.8256 92.0135 73.2755 92.0535 73.6436C92.1336 73.9708 92.2936 74.0321 92.5338 73.8276C93.4542 71.8236 94.2346 70.3717 94.8749 69.4719C95.5152 68.5722 96.1955 67.6315 96.9159 66.65C98.0364 65.6275 99.0169 65.239 99.8573 65.4844C100.298 65.5662 100.758 65.7297 101.238 65.9751C101.718 66.1796 102.359 66.3637 103.159 66.5273C103.679 66.9771 104.019 67.4679 104.179 67.9996C104.3 68.1223 104.42 68.245 104.54 68.3677C104.66 68.4495 104.74 68.5722 104.78 68.7358C104.86 68.8585 104.96 69.1652 105.08 69.656C105.24 70.1468 105.4 70.6784 105.56 71.251C105.72 71.7827 105.86 72.3144 105.98 72.8461C106.1 73.3368 106.18 73.664 106.22 73.8276ZM107.661 99.5322C107.661 99.614 107.661 99.6345 107.661 99.5936C107.701 99.5118 107.721 99.43 107.721 99.3482L107.661 99.5322Z" fill="#FB3063"/>
<path d="M108.748 76.4106C112.83 63.8548 115.551 57.5769 116.912 57.5769C117.072 57.5769 117.252 57.5974 117.452 57.6383C118.093 57.6792 118.813 57.4133 119.613 56.8408C120.654 55.941 121.854 55.2457 123.215 54.755C124.616 54.2642 125.976 54.0801 127.297 54.2028C130.379 54.4891 132.32 56.1455 133.12 59.172V59.356C132.92 59.9286 132.72 60.3989 132.52 60.767H132.76C131.759 62.0349 130.799 63.6912 129.878 65.7362C128.958 67.7402 128.258 69.3148 127.777 70.4599C127.297 71.5642 126.617 72.9752 125.736 74.6929C124.856 76.4106 123.835 78.5169 122.675 81.0117C121.554 83.5065 120.374 85.9808 119.133 88.4347C116.172 94.3241 113.23 98.9456 110.309 102.299C108.828 104.14 106.827 105.039 104.306 104.999C103.225 104.958 102.185 104.671 101.184 104.14C100.184 103.608 99.4035 102.79 98.8432 101.686L97.5826 97.8209C97.0623 98.2708 96.462 98.8434 95.7817 99.5386C95.1014 100.234 94.381 100.95 93.6206 101.686C91.8598 103.404 90.4991 104.303 89.5386 104.385C88.5782 104.467 87.7578 104.467 87.0774 104.385C86.3971 104.344 85.7568 104.201 85.1565 103.956C83.7958 103.424 82.9154 102.402 82.5152 100.888C81.8349 93.8947 82.175 84.9584 83.5357 74.0794C83.8959 71.421 84.216 68.8035 84.4962 66.2269C85.1765 62.587 86.4571 59.9695 88.3381 58.3745C89.9388 56.9839 91.4996 56.5749 93.0203 57.1475C93.7007 57.3929 94.2209 57.8019 94.5811 58.3745C94.9413 58.947 95.0613 59.6423 94.9413 60.4603C95.0213 62.9551 95.0013 64.8159 94.8813 66.0429C94.7212 68.1287 94.6612 69.6624 94.7012 70.644C94.7412 71.6255 94.7212 72.4435 94.6411 73.0979C94.6011 73.7113 94.5611 74.3044 94.5211 74.8769C94.5211 75.4086 94.5411 75.8585 94.5811 76.2266C94.6612 76.5538 94.8212 76.6151 95.0613 76.4106C95.9818 74.4066 96.7622 72.9547 97.4025 72.055C98.0428 71.1552 98.7231 70.2145 99.4435 69.233C100.564 68.2105 101.545 67.822 102.385 68.0674C102.825 68.1492 103.285 68.3128 103.766 68.5581C104.246 68.7626 104.886 68.9467 105.687 69.1103C106.207 69.5602 106.547 70.0509 106.707 70.5826C106.827 70.7053 106.947 70.828 107.067 70.9507C107.187 71.0325 107.267 71.1552 107.307 71.3188C107.387 71.4415 107.487 71.7482 107.607 72.239C107.768 72.7298 107.928 73.2615 108.088 73.834C108.248 74.3657 108.388 74.8974 108.508 75.4291C108.628 75.9198 108.708 76.247 108.748 76.4106ZM110.189 102.115C110.189 102.197 110.189 102.217 110.189 102.177C110.229 102.095 110.249 102.013 110.249 101.931L110.189 102.115Z" fill="#BDA3A2"/>
<circle cx="48" cy="77" r="28" fill="#2C2B2E"/>
<defs>
<filter id="filter0_d_104_15" x="0" y="0" width="159" height="159" filterUnits="userSpaceOnUse" color-interpolation-filters="sRGB">
<feFlood flood-opacity="0" result="BackgroundImageFix"/>
<feColorMatrix in="SourceAlpha" type="matrix" values="0 0 0 0 0 0 0 0 0 0 0 0 0 0 0 0 0 0 127 0" result="hardAlpha"/>
<feOffset dx="2" dy="2"/>
<feGaussianBlur stdDeviation="7.5"/>
<feComposite in2="hardAlpha" operator="out"/>
<feColorMatrix type="matrix" values="0 0 0 0 0 0 0 0 0 0 0 0 0 0 0 0 0 0 0.1 0"/>
<feBlend mode="normal" in2="BackgroundImageFix" result="effect1_dropShadow_104_15"/>
<feBlend mode="normal" in="SourceGraphic" in2="effect1_dropShadow_104_15" result="shape"/>
</filter>
</defs>
</svg>
